<?xml version="1.0" standalone="no"?>
<!DOCTYPE svg PUBLIC "-//W3C//DTD SVG 20010904//EN" "http://www.w3.org/TR/2001/REC-SVG-20010904/DTD/svg10.dtd">
<svg version="1.0" xmlns="http://www.w3.org/2000/svg"
    width="500.000000pt" height="500.000000pt" viewBox="0 0 500.000000 500.000000"
    preserveAspectRatio="xMidYMid meet">

    <g transform="translate(0.000000,500.000000) scale(0.100000,-0.100000)"
        fill="#00dfc4" stroke="none">
        <path
            d="M2350 4014 c-219 -32 -323 -62 -495 -144 -186 -88 -340 -205 -484
-366 -191 -214 -330 -511 -371 -794 -16 -112 -8 -399 15 -499 49 -217 156
-451 284 -621 224 -299 528 -496 889 -577 103 -23 139 -26 302 -27 179 0 218
4 370 40 103 25 247 81 355 140 393 214 686 623 771 1079 14 74 19 144 18 270
0 190 -16 284 -78 470 -181 541 -681 952 -1246 1025 -71 9 -276 11 -330 4z
m217 -270 c21 -21 24 -31 19 -63 -4 -25 -1 -44 9 -57 29 -38 12 -84 -39 -104
-37 -14 -119 -13 -134 2 -13 13 -18 229 -5 241 3 4 33 7 65 7 50 0 63 -4 85
-26z m-299 -117 c3 -126 3 -127 -20 -127 -15 1 -38 19 -67 55 -24 30 -48 52
-53 49 -4 -3 -8 -29 -8 -58 0 -61 -19 -88 -45 -66 -23 19 -22 232 1 251 15 12
24 6 75 -51 63 -69 65 -69 61 14 -1 38 15 68 36 64 15 -3 17 -21 20 -131z
m628 92 c26 -24 30 -49 14 -80 -8 -14 -6 -25 6 -43 18 -29 12 -77 -13 -98 -16
-13 -133 -16 -153 -3 -12 7 -14 238 -2 249 4 5 33 6 65 3 42 -4 66 -12 83 -28z
m-1260 -420 c20 -22 13 -43 -19 -63 -36 -23 -75 36 -47 70 17 20 44 17 66 -7z
m1781 13 c27 -17 19 -70 -12 -78 -31 -8 -55 10 -55 40 0 38 36 58 67 38z
m-1060 -83 c24 -12 55 -37 68 -57 22 -32 25 -48 25 -119 0 -52 -4 -83 -11 -83
-19 0 -53 22 -90 57 -40 38 -72 41 -77 7 -2 -11 7 -32 19 -47 24 -31 115 -87
142 -87 16 0 17 -16 17 -185 l0 -185 -93 0 c-100 0 -123 -9 -106 -42 8 -15 23
-18 104 -18 l95 0 0 -165 c0 -110 -4 -165 -11 -165 -18 0 -53 21 -85 52 -38
36 -68 34 -72 -4 -3 -21 6 -33 44 -62 26 -20 64 -41 85 -46 l39 -11 0 -134 0
-134 -32 -36 c-49 -56 -95 -75 -183 -75 -61 0 -85 5 -125 25 -70 35 -110 93
-110 157 0 27 4 58 10 68 9 18 11 18 62 -2 66 -25 182 -28 206 -5 30 30 8 47
-62 47 -90 0 -163 29 -214 84 -51 56 -60 73 -75 148 -10 47 -18 64 -31 66 -28
6 -40 -14 -38 -58 3 -39 2 -40 -31 -40 -48 0 -120 49 -152 104 -24 41 -26 52
-21 113 7 89 7 99 0 154 -4 35 -1 58 13 90 23 51 69 109 88 109 7 0 28 -13 46
-30 19 -16 48 -35 65 -42 31 -11 32 -12 30 -80 -1 -68 -1 -69 -34 -80 -20 -8
-35 -21 -38 -35 -11 -43 15 -55 65 -29 27 14 29 14 65 -30 47 -56 117 -94 140
-74 25 20 19 38 -23 64 -82 52 -124 143 -102 219 16 54 53 103 94 123 18 9 35
22 39 27 9 15 -10 47 -28 47 -27 0 -91 -38 -118 -71 -32 -37 -57 -35 -111 12
-58 51 -68 136 -25 207 22 36 76 78 112 87 22 6 27 3 30 -17 2 -16 10 -24 29
-26 24 -3 27 1 38 51 31 141 197 220 328 156z m481 -5 c70 -35 107 -86 127
-177 4 -22 11 -28 28 -25 14 2 23 11 25 26 4 27 21 28 72 2 65 -33 103 -96
102 -171 -1 -63 -51 -133 -103 -144 -23 -5 -35 0 -68 33 -50 48 -96 70 -120
55 -30 -19 -23 -40 24 -67 63 -37 95 -91 95 -160 0 -86 -31 -139 -112 -189
-31 -19 -37 -54 -12 -64 34 -13 149 67 166 117 3 10 11 9 36 -4 41 -21 74 -13
70 17 -2 13 -18 30 -40 42 l-38 20 0 66 c0 62 2 67 24 73 14 3 46 22 71 42
l47 36 35 -34 c49 -47 64 -89 65 -188 3 -227 4 -212 -27 -258 -33 -50 -98 -92
-143 -92 -31 0 -32 1 -32 45 0 33 -5 47 -16 52 -29 11 -49 -12 -55 -64 -7 -57
-19 -82 -65 -140 -49 -61 -124 -93 -214 -93 -75 0 -96 -14 -69 -46 18 -22 170
-16 218 9 19 9 35 16 36 15 31 -39 32 -100 3 -158 -58 -114 -249 -152 -363
-72 -62 44 -74 77 -75 218 l0 122 43 10 c24 6 65 28 91 48 38 29 47 41 44 62
-4 38 -34 40 -72 4 -35 -34 -67 -52 -90 -52 -14 0 -16 22 -16 165 l0 164 103
3 c101 3 102 3 102 28 0 25 -1 25 -102 28 l-103 3 0 184 0 185 23 0 c28 0 114
49 145 83 27 29 26 70 -2 75 -11 2 -33 -10 -55 -32 -20 -19 -53 -42 -73 -51
l-38 -15 0 75 c0 79 18 133 56 166 65 57 167 66 252 23z m866 -418 c15 -13 26
-25 26 -28 0 -3 -24 -3 -52 -1 -88 6 -92 -1 -96 -172 -3 -117 -6 -145 -18
-145 -11 0 -14 25 -14 136 0 145 13 197 51 209 10 4 19 11 19 16 0 19 59 9 84
-15z m-2324 -16 c15 -29 3 -59 -26 -66 -30 -8 -54 11 -54 40 0 46 59 64 80 26z
m2300 -191 c0 -143 1 -151 20 -156 19 -5 21 -12 18 -82 l-3 -76 -60 0 -60 0
-3 78 c-3 77 -3 77 23 77 l25 0 0 148 c0 82 3 152 7 155 3 4 12 7 20 7 10 0
13 -32 13 -151z m-2295 -359 c15 -47 -23 -82 -65 -60 -20 11 -25 35 -14 64 9
25 71 21 79 -4z m2315 1 c0 -22 -32 -81 -44 -81 -11 0 -46 65 -46 85 0 3 20 5
45 5 25 0 45 -4 45 -9z m-1873 -127 c42 -2 59 -7 66 -21 6 -10 23 -35 40 -56
29 -38 29 -39 14 -75 -9 -20 -18 -48 -19 -62 -3 -23 -7 -25 -45 -23 -72 3
-155 60 -193 133 -21 42 -35 119 -26 148 7 20 9 20 57 -10 37 -24 63 -32 106
-34z m1503 11 c0 -55 -32 -130 -73 -174 -39 -41 -120 -81 -164 -81 -28 0 -33
3 -33 25 0 13 -7 42 -15 63 -16 38 -15 39 22 95 34 51 41 57 73 57 49 0 102
16 141 44 19 12 37 21 42 19 4 -2 7 -24 7 -48z m-1692 -402 c2 -24 -2 -34 -17
-43 -27 -14 -61 3 -61 30 0 38 11 51 44 48 27 -3 31 -7 34 -35z m1792 16 c9
-16 8 -26 -5 -45 -17 -27 -27 -29 -56 -14 -21 12 -25 50 -7 68 19 19 56 14 68
-9z m-1422 -318 c8 -5 12 -17 10 -27 -3 -21 -60 -31 -105 -19 -42 10 -25 39
27 46 25 3 47 7 50 7 3 1 11 -2 18 -7z m236 -21 c15 -15 21 -33 21 -66 0 -61
-29 -86 -94 -82 l-46 3 1 70 c0 100 5 109 56 102 22 -3 50 -15 62 -27z m616
19 c0 -6 -5 -20 -12 -32 -6 -12 -14 -49 -17 -82 -7 -74 -30 -83 -46 -18 -6 23
-23 55 -38 71 -30 31 -36 62 -12 62 9 0 26 -12 39 -26 l22 -27 13 32 c13 29
51 45 51 20z m240 -18 c0 -21 -32 -32 -82 -29 -46 3 -53 6 -56 25 -3 20 2 22
50 25 53 3 88 -5 88 -21z m-744 -6 c4 -9 2 -50 -2 -93 -8 -64 -12 -77 -28 -80
-18 -4 -19 1 -14 81 3 47 9 90 12 96 10 16 26 14 32 -4z m328 -1 c18 -17 22
-79 6 -89 -7 -4 -4 -17 7 -36 14 -23 15 -31 4 -41 -10 -11 -18 -7 -40 20 -34
40 -41 40 -41 1 0 -24 -4 -30 -17 -27 -15 3 -18 16 -21 82 -2 44 -1 85 2 93 7
19 81 17 100 -3z m-167 -74 c17 -41 32 -81 32 -87 1 -21 -37 -15 -44 7 -5 15
-15 20 -40 20 -24 0 -34 -5 -38 -20 -7 -25 -37 -26 -37 -1 0 10 7 36 16 57 53
129 64 131 111 24z" />
        <path
            d="M2470 3689 c0 -16 5 -20 27 -17 17 2 29 10 31 21 3 13 -3 17 -27 17
-25 0 -31 -4 -31 -21z" />
        <path
            d="M2477 3613 c-4 -3 -7 -15 -7 -25 0 -14 8 -18 34 -18 21 0 36 6 40 15
8 23 -49 47 -67 28z" />
        <path
            d="M2800 3670 c0 -17 5 -21 28 -18 16 2 27 9 27 18 0 9 -11 16 -27 18
-23 3 -28 -1 -28 -18z" />
        <path d="M2795 3592 c-15 -15 -3 -40 22 -45 35 -7 55 2 51 21 -3 16 -62 35
-73 24z" />
        <path
            d="M2166 1358 c-13 -49 -7 -68 19 -68 22 0 45 24 45 49 0 14 -29 41 -45
41 -7 0 -15 -10 -19 -22z" />
        <path d="M2623 1354 c-8 -21 13 -42 28 -27 13 13 5 43 -11 43 -6 0 -13 -7 -17
-16z" />
        <path d="M2460 1310 c0 -5 5 -10 11 -10 5 0 7 5 4 10 -3 6 -8 10 -11 10 -2 0
-4 -4 -4 -10z" />
    </g>
</svg>